<mxfile host="app.diagrams.net" agent="Mozilla/5.0 (Windows NT 10.0; Win64; x64) AppleWebKit/537.36 (KHTML, like Gecko) Chrome/138.0.0.0 Safari/537.36" version="28.0.7">
  <diagram name="Page-1" id="U4qxr_CG3IibTYs8Rolj">
    <mxGraphModel dx="679" dy="1102" grid="1" gridSize="10" guides="1" tooltips="1" connect="1" arrows="1" fold="1" page="1" pageScale="1" pageWidth="1100" pageHeight="850" math="0" shadow="0">
      <root>
        <mxCell id="0" />
        <mxCell id="1" parent="0" />
        <mxCell id="Jq9yedBtSdVQ4C04_sMb-1" value="" style="rounded=0;whiteSpace=wrap;html=1;" parent="1" vertex="1">
          <mxGeometry width="1100" height="850" as="geometry" />
        </mxCell>
        <mxCell id="Jq9yedBtSdVQ4C04_sMb-2" value="HEADER" style="rounded=0;whiteSpace=wrap;html=1;" parent="1" vertex="1">
          <mxGeometry width="1100" height="40" as="geometry" />
        </mxCell>
        <mxCell id="Jq9yedBtSdVQ4C04_sMb-3" value="" style="rounded=0;whiteSpace=wrap;html=1;" parent="1" vertex="1">
          <mxGeometry y="120" width="210" height="290" as="geometry" />
        </mxCell>
        <mxCell id="Jq9yedBtSdVQ4C04_sMb-5" value="Welcome, [NAME]" style="rounded=0;whiteSpace=wrap;html=1;" parent="1" vertex="1">
          <mxGeometry x="10" y="50" width="130" height="30" as="geometry" />
        </mxCell>
        <mxCell id="Jq9yedBtSdVQ4C04_sMb-6" value="Portfolio Balance:&amp;nbsp;&lt;span style=&quot;background-color: transparent; color: light-dark(rgb(0, 0, 0), rgb(255, 255, 255));&quot;&gt;$[Balance]&lt;/span&gt;" style="rounded=0;whiteSpace=wrap;html=1;" parent="1" vertex="1">
          <mxGeometry x="150" y="50" width="170" height="30" as="geometry" />
        </mxCell>
        <mxCell id="Jq9yedBtSdVQ4C04_sMb-7" value="HOME" style="rounded=0;whiteSpace=wrap;html=1;fillColor=#C6C6C6;" parent="1" vertex="1">
          <mxGeometry y="120" width="210" height="30" as="geometry" />
        </mxCell>
        <mxCell id="Jq9yedBtSdVQ4C04_sMb-8" value="ASSET ALLOCATION" style="rounded=0;whiteSpace=wrap;html=1;" parent="1" vertex="1">
          <mxGeometry y="150" width="210" height="30" as="geometry" />
        </mxCell>
        <mxCell id="Jq9yedBtSdVQ4C04_sMb-9" value="INCOME &amp;amp; SPENDING" style="rounded=0;whiteSpace=wrap;html=1;" parent="1" vertex="1">
          <mxGeometry y="180" width="210" height="30" as="geometry" />
        </mxCell>
        <mxCell id="Jq9yedBtSdVQ4C04_sMb-10" value="PRIVATE EQUITY GLOSSARY" style="rounded=0;whiteSpace=wrap;html=1;" parent="1" vertex="1">
          <mxGeometry y="240" width="210" height="30" as="geometry" />
        </mxCell>
        <mxCell id="Jq9yedBtSdVQ4C04_sMb-11" value="PRIVATE MARKET INVESTMENTS" style="rounded=0;whiteSpace=wrap;html=1;" parent="1" vertex="1">
          <mxGeometry y="210" width="210" height="30" as="geometry" />
        </mxCell>
        <mxCell id="Jq9yedBtSdVQ4C04_sMb-12" value="FOOTER" style="rounded=0;whiteSpace=wrap;html=1;" parent="1" vertex="1">
          <mxGeometry y="810" width="1100" height="40" as="geometry" />
        </mxCell>
        <mxCell id="Jq9yedBtSdVQ4C04_sMb-13" value="STOCKS" style="rounded=0;whiteSpace=wrap;html=1;" parent="1" vertex="1">
          <mxGeometry y="270" width="210" height="30" as="geometry" />
        </mxCell>
        <mxCell id="Jq9yedBtSdVQ4C04_sMb-14" value="CRYPTOCURRENCIES" style="rounded=0;whiteSpace=wrap;html=1;" parent="1" vertex="1">
          <mxGeometry y="300" width="210" height="30" as="geometry" />
        </mxCell>
        <mxCell id="Jq9yedBtSdVQ4C04_sMb-15" value="FUTURES" style="rounded=0;whiteSpace=wrap;html=1;" parent="1" vertex="1">
          <mxGeometry y="330" width="210" height="30" as="geometry" />
        </mxCell>
        <mxCell id="Jq9yedBtSdVQ4C04_sMb-17" value="NET WORTH GRAPH&lt;div&gt;(Custom date range?)&lt;/div&gt;" style="rounded=0;whiteSpace=wrap;html=1;" parent="1" vertex="1">
          <mxGeometry x="250" y="120" width="780" height="250" as="geometry" />
        </mxCell>
        <mxCell id="Jq9yedBtSdVQ4C04_sMb-18" value="RECENT TRANSACTIONS TABLE" style="rounded=0;whiteSpace=wrap;html=1;" parent="1" vertex="1">
          <mxGeometry x="250" y="390" width="780" height="250" as="geometry" />
        </mxCell>
        <mxCell id="Jq9yedBtSdVQ4C04_sMb-19" value="CONTACT US" style="rounded=0;whiteSpace=wrap;html=1;" parent="1" vertex="1">
          <mxGeometry y="360" width="210" height="30" as="geometry" />
        </mxCell>
        <mxCell id="Jq9yedBtSdVQ4C04_sMb-20" value="SETTINGS" style="rounded=0;whiteSpace=wrap;html=1;" parent="1" vertex="1">
          <mxGeometry y="390" width="210" height="30" as="geometry" />
        </mxCell>
      </root>
    </mxGraphModel>
  </diagram>
</mxfile>
